# xmcd
#
# Track frame offsets:
# 150
# 13787
# 29503
# 41400
# 55351
# 67051
# 83935
# 100234
# 112682
# 129077
# 143969
# 156139
# 169059
# 184609
# 197570
# 213157
# 228737
# 243217
# 258087
#
# Disc length: 3723 seconds
#
#
# Revision: 0
# Processed by: cddbd v1.5.2PL0 Copyright (c) Steve Scherf et al.
# Submitted via: FreeRIP 2.70 
#
DISCID=fb0e8913
DTITLE=WZANETTI - RAIOS DE LUAR - LUA CHEIA
DYEAR=2015
DGENRE=Ballad
TTITLE0=FEITIÇO(WZANETTI)
TTITLE1=TO INDO EMBORA
TTITLE2=RABO DE SAIA
TTITLE3=PERECA DA VIZINHA
TTITLE4=PAGO PRA VER
TTITLE5=MAIS ELA VAI QUEBRAR A CARA
TTITLE6=VITMA DO AMOR
TTITLE7=FAZER BEBER
TTITLE8=OS DEZ MANDAMENTOS DO AMOR
TTITLE9=TUDO QUE VOÇE QUIZER
TTITLE10=ENCAIXA
TTITLE11=NAO VAI ROLAR
TTITLE12=BICHO DE PÉ
TTITLE13=NOVILHA
TTITLE14=SAUDADE DELA
TTITLE15=EU AMO
TTITLE16=MANGUEIRA
TTITLE17=EU FAÇO TUDO PRA GANHAR O SEU AMOR
TTITLE18=BEBO E CHORO POR VOÇE
EXTD=GRAVADO NA PIRATARIA DE COLATINA-ES
EXTT0=
EXTT1=
EXTT2=
EXTT3=
EXTT4=
EXTT5=
EXTT6=
EXTT7=
EXTT8=
EXTT9=
EXTT10=
EXTT11=
EXTT12=
EXTT13=
EXTT14=
EXTT15=
EXTT16=
EXTT17=
EXTT18=
PLAYORDER=
